<?xml version="1.0" encoding="UTF-8" standalone="no"?>
<svg
   xmlns:dc="http://purl.org/dc/elements/1.1/"
   xmlns:cc="http://creativecommons.org/ns#"
   xmlns:rdf="http://www.w3.org/1999/02/22-rdf-syntax-ns#"
   xmlns:svg="http://www.w3.org/2000/svg"
   xmlns="http://www.w3.org/2000/svg"
   xmlns:sodipodi="http://sodipodi.sourceforge.net/DTD/sodipodi-0.dtd"
   xmlns:inkscape="http://www.inkscape.org/namespaces/inkscape"
   version="1.1"
   viewBox="0 0 100 125"
   xml:space="preserve"
   x="0px"
   y="0px"
   id="svg2"
   inkscape:version="0.48.4 r9939"
   width="100%"
   height="100%"
   sodipodi:docname="info.svg"><metadata
     id="metadata14"><rdf:RDF><cc:Work
         rdf:about=""><dc:format>image/svg+xml</dc:format><dc:type
           rdf:resource="http://purl.org/dc/dcmitype/StillImage" /></cc:Work></rdf:RDF></metadata><defs
     id="defs12" /><sodipodi:namedview
     pagecolor="#ffffff"
     bordercolor="#666666"
     borderopacity="1"
     objecttolerance="10"
     gridtolerance="10"
     guidetolerance="10"
     inkscape:pageopacity="0"
     inkscape:pageshadow="2"
     inkscape:window-width="1855"
     inkscape:window-height="1056"
     id="namedview10"
     showgrid="false"
     inkscape:zoom="1.888"
     inkscape:cx="50"
     inkscape:cy="62.5"
     inkscape:window-x="65"
     inkscape:window-y="24"
     inkscape:window-maximized="1"
     inkscape:current-layer="svg2" /><path
     d="M -0.03679343,100 L 99.999,100.93566 L 100.33641,0 L 0.001,0.26282809 z M 48.488084,14.078111 C 53.084084,14.078111 56.209084,17.571111 56.209084,22.076111 C 56.209084,26.857111 52.808084,30.165111 48.488084,30.165111 C 44.259084,30.165111 40.857084,26.856111 40.857084,22.076111 C 40.857084,17.388111 44.259084,14.078111 48.488084,14.078111 z M 36.353084,78.887111 C 41.777084,78.887111 42.237084,78.060111 42.237084,71.258111 L 42.237084,50.204111 C 42.237084,43.402111 41.870084,42.942111 36.353084,42.942111 L 36.353084,39.266111 C 41.961084,38.897111 47.936084,37.426111 54.280084,34.761111 L 55.843084,35.588111 L 55.843084,71.348111 C 55.843084,78.059111 56.394084,78.886111 61.266084,78.886111 L 61.266084,82.745111 L 36.353084,82.745111 z"
     style=""
     fill="#000000"
     id="path4" /></svg>