<?xml version="1.0" encoding="UTF-8" standalone="no"?>
<svg
   xmlns:dc="http://purl.org/dc/elements/1.1/"
   xmlns:cc="http://creativecommons.org/ns#"
   xmlns:rdf="http://www.w3.org/1999/02/22-rdf-syntax-ns#"
   xmlns:svg="http://www.w3.org/2000/svg"
   xmlns="http://www.w3.org/2000/svg"
   xmlns:sodipodi="http://sodipodi.sourceforge.net/DTD/sodipodi-0.dtd"
   xmlns:inkscape="http://www.inkscape.org/namespaces/inkscape"
   version="1.1"
   x="0px"
   y="0px"
   viewBox="0 0 100 125"
   enable-background="new 0 0 100 100"
   xml:space="preserve"
   id="svg2"
   inkscape:version="0.48.4 r9939"
   width="100%"
   height="100%"
   sodipodi:docname="pause.svg"><metadata
     id="metadata16"><rdf:RDF><cc:Work
         rdf:about=""><dc:format>image/svg+xml</dc:format><dc:type
           rdf:resource="http://purl.org/dc/dcmitype/StillImage" /></cc:Work></rdf:RDF></metadata><defs
     id="defs14" /><sodipodi:namedview
     pagecolor="#ffffff"
     bordercolor="#666666"
     borderopacity="1"
     objecttolerance="10"
     gridtolerance="10"
     guidetolerance="10"
     inkscape:pageopacity="0"
     inkscape:pageshadow="2"
     inkscape:window-width="640"
     inkscape:window-height="480"
     id="namedview12"
     showgrid="false"
     inkscape:zoom="1.888"
     inkscape:cx="50"
     inkscape:cy="62.5"
     inkscape:window-x="75"
     inkscape:window-y="34"
     inkscape:window-maximized="0"
     inkscape:current-layer="svg2" /><path
     fill-rule="evenodd"
     clip-rule="evenodd"
     fill="#000000"
     d="M0.574,10.056C0.574,4.502,5.078,0,10.632,0h21.139  c5.554,0,10.058,4.502,10.058,10.056v79.887c0,5.555-4.504,10.057-10.058,10.057H10.632c-5.554,0-10.058-4.502-10.058-10.057V10.056  z"
     id="path4" /><path
     fill-rule="evenodd"
     clip-rule="evenodd"
     fill="#000000"
     d="M58.175,10.056C58.175,4.502,62.679,0,68.229,0h21.142  c5.554,0,10.055,4.502,10.055,10.056v79.887c0,5.555-4.501,10.057-10.055,10.057H68.229c-5.551,0-10.055-4.502-10.055-10.057V10.056  z"
     id="path6" /></svg>