<svg xmlns="http://www.w3.org/2000/svg" viewBox="0 0 92 92.000001" x="0px" y="0px"><path d="m301.14 543.52c-1.108 0-2 .892-2 2v9.965a34.999941 35.00042 45.02439 0 0 -10.4043 4.3164l-7.05-7.05c-.784-.784-2.045-.784-2.828 0l-8.484 8.484c-.784.784-.784 2.045 0 2.828l7.04 7.04a34.999941 35.00042 45.02439 0 0 -4.2969 10.4199h-9.971c-1.108 0-2 .892-2 2v12c0 1.108.892 2 2 2h9.965a34.999941 35.00042 45.02439 0 0 4.3144 10.4043l-7.05 7.05c-.784.783-.784 2.045 0 2.828l8.484 8.486c.783.784 2.045.784 2.828 0l7.04-7.04a34.999941 35.00042 45.02439 0 0 10.4199 4.2988v9.969c0 1.108.892 2 2 2h12c1.108 0 2-.892 2-2v-9.965a34.999941 35.00042 45.02439 0 0 10.4043 -4.3165l7.05 7.05c.784.784 2.045.784 2.828 0l8.486-8.486c.784-.784.784-2.045 0-2.828l-7.05-7.05a34.999941 35.00042 45.02439 0 0 4.3164 -10.4043h9.965c1.108 0 2-.892 2-2v-12c0-1.108-.892-2-2-2h-9.965a34.999941 35.00042 45.02439 0 0 -4.3164 -10.4063l7.05-7.05c.784-.784.784-2.045 0-2.828l-8.486-8.484c-.784-.784-2.045-.784-2.828 0l-7.04 7.04a34.999941 35.00042 45.02439 0 0 -10.418 -4.2969v-9.969c0-1.108-.892-2-2-2h-12m6.1895 33a12.999999 12.999999 0 0 1 9.0019 3.8066 12.999999 12.999999 0 0 1 0 18.3848 12.999999 12.999999 0 0 1 -18.3847 0 12.999999 12.999999 0 0 1 0 -18.3848 12.999999 12.999999 0 0 1 9.3828 -3.8066" fill-opacity="1.0" transform="translate(-261.14-543.52)"></path></svg>