<?xml version="1.0" encoding="UTF-8" standalone="no"?>
<svg
   xmlns:dc="http://purl.org/dc/elements/1.1/"
   xmlns:cc="http://creativecommons.org/ns#"
   xmlns:rdf="http://www.w3.org/1999/02/22-rdf-syntax-ns#"
   xmlns:svg="http://www.w3.org/2000/svg"
   xmlns="http://www.w3.org/2000/svg"
   xmlns:sodipodi="http://sodipodi.sourceforge.net/DTD/sodipodi-0.dtd"
   xmlns:inkscape="http://www.inkscape.org/namespaces/inkscape"
   version="1.1"
   x="0px"
   y="0px"
   viewBox="0 0 100 125"
   enable-background="new 0 0 100 100"
   xml:space="preserve"
   id="svg2"
   inkscape:version="0.48.4 r9939"
   width="100%"
   height="100%"
   sodipodi:docname="setting.svg"><metadata
     id="metadata18"><rdf:RDF><cc:Work
         rdf:about=""><dc:format>image/svg+xml</dc:format><dc:type
           rdf:resource="http://purl.org/dc/dcmitype/StillImage" /></cc:Work></rdf:RDF></metadata><defs
     id="defs16" /><sodipodi:namedview
     pagecolor="#ffffff"
     bordercolor="#666666"
     borderopacity="1"
     objecttolerance="10"
     gridtolerance="10"
     guidetolerance="10"
     inkscape:pageopacity="0"
     inkscape:pageshadow="2"
     inkscape:window-width="1855"
     inkscape:window-height="1056"
     id="namedview14"
     showgrid="false"
     inkscape:zoom="1.888"
     inkscape:cx="50"
     inkscape:cy="62.5"
     inkscape:window-x="65"
     inkscape:window-y="24"
     inkscape:window-maximized="1"
     inkscape:current-layer="svg2" /><g
     id="g4"><path
       fill="#000000"
       d="M95.678,38.018l-6.331-2.251c-0.684-0.243-1.234-0.766-1.511-1.434c-0.004-0.007-0.007-0.017-0.011-0.024   c-0.269-0.666-0.245-1.418,0.063-2.068l2.883-6.066c1.182-2.484,0.672-5.442-1.273-7.387l-8.285-8.285   c-1.943-1.944-4.9-2.455-7.387-1.273l-6.066,2.883c-0.649,0.309-1.429,0.328-2.089,0.055c-0.011-0.005-0.021-0.008-0.031-0.013   c-0.654-0.28-1.166-0.825-1.405-1.498l-2.251-6.332C61.062,1.731,58.608,0,55.858,0H44.142c-2.75,0-5.203,1.731-6.124,4.322   l-2.251,6.329c-0.243,0.685-0.767,1.236-1.437,1.514c-0.668,0.276-1.435,0.257-2.09-0.054l-6.066-2.883   c-2.482-1.181-5.442-0.672-7.387,1.273l-8.285,8.285c-1.945,1.944-2.456,4.902-1.274,7.387l2.884,6.066   c0.311,0.651,0.332,1.407,0.061,2.074c-0.002,0.006-0.005,0.013-0.007,0.018c-0.277,0.669-0.828,1.191-1.512,1.435l-6.331,2.251   C1.731,38.938,0,41.392,0,44.142v11.717c0,2.751,1.731,5.203,4.322,6.124l6.331,2.251c0.659,0.235,1.194,0.729,1.48,1.361   c0.02,0.05,0.04,0.1,0.061,0.148c0.247,0.653,0.218,1.384-0.083,2.017l-2.884,6.066c-1.181,2.484-0.671,5.442,1.274,7.387   l8.285,8.285c1.943,1.944,4.902,2.455,7.388,1.274l6.062-2.883c0.644-0.307,1.413-0.329,2.072-0.064   c0.009,0.004,0.019,0.008,0.025,0.012c0.667,0.275,1.189,0.826,1.432,1.508l2.251,6.332c0.922,2.592,3.375,4.323,6.125,4.323   h11.717c2.75,0,5.202-1.73,6.124-4.321l2.238-6.294c0.243-0.683,0.756-1.238,1.415-1.534c0.026-0.009,0.052-0.021,0.078-0.031   c0.638-0.265,1.391-0.242,2.009,0.051l6.104,2.902c2.483,1.182,5.442,0.672,7.387-1.274l8.285-8.285   c1.945-1.944,2.456-4.903,1.273-7.387l-2.884-6.065c-0.312-0.658-0.332-1.419-0.055-2.087c0.003-0.009,0.007-0.017,0.009-0.024   c0.28-0.658,0.829-1.175,1.509-1.417l6.327-2.25C98.27,61.062,100,58.609,100,55.858V44.142   C100,41.392,98.269,38.938,95.678,38.018z M87,51.271l-2.004,0.712c-4.146,1.474-7.487,4.647-9.171,8.707   c-0.009,0.021-0.018,0.043-0.026,0.065c-1.657,4.046-1.532,8.627,0.348,12.584l0.915,1.926l-1.796,1.796L73.3,76.128   c-3.865-1.835-8.467-1.973-12.425-0.375c-0.054,0.021-0.107,0.042-0.161,0.064c-4.078,1.695-7.266,5.055-8.742,9.214L51.271,87   h-2.542l-0.715-2.011c-1.471-4.132-4.63-7.465-8.673-9.149c-0.011-0.005-0.021-0.01-0.032-0.014   c-4.022-1.67-8.717-1.549-12.655,0.322l-1.92,0.913l-1.797-1.797l0.914-1.923c1.89-3.976,2.008-8.586,0.323-12.65   c-0.007-0.018-0.015-0.034-0.021-0.052c-1.689-4.035-5.02-7.188-9.145-8.654L13,51.271v-2.541l2.01-0.715   c4.125-1.467,7.455-4.62,9.144-8.655c0.007-0.017,0.014-0.033,0.021-0.05c1.685-4.065,1.567-8.678-0.323-12.652l-0.914-1.922   l1.798-1.798l1.923,0.914c3.936,1.87,8.629,1.991,12.651,0.322c4.058-1.682,7.23-5.021,8.705-9.165L48.729,13h2.541l0.715,2.011   c1.475,4.143,4.646,7.482,8.705,9.163c0.013,0.006,0.026,0.011,0.04,0.017c4.01,1.65,8.69,1.525,12.612-0.339l1.922-0.914   l1.798,1.798l-0.914,1.923c-1.89,3.976-2.008,8.587-0.323,12.65h0.001c0.005,0.013,0.01,0.025,0.016,0.037   c1.687,4.042,5.02,7.201,9.149,8.669L87,48.729V51.271z"
       id="path6" /><path
       fill="#000000"
       d="M50,27.546c-12.381,0-22.454,10.073-22.454,22.454S37.619,72.454,50,72.454S72.454,62.381,72.454,50   S62.381,27.546,50,27.546z M50,59.454c-5.213,0-9.454-4.241-9.454-9.454s4.241-9.454,9.454-9.454s9.454,4.241,9.454,9.454   S55.213,59.454,50,59.454z"
       id="path8" /></g></svg>