<?xml version="1.0" encoding="UTF-8" standalone="no"?>
<svg
   xmlns:dc="http://purl.org/dc/elements/1.1/"
   xmlns:cc="http://creativecommons.org/ns#"
   xmlns:rdf="http://www.w3.org/1999/02/22-rdf-syntax-ns#"
   xmlns:svg="http://www.w3.org/2000/svg"
   xmlns="http://www.w3.org/2000/svg"
   xmlns:sodipodi="http://sodipodi.sourceforge.net/DTD/sodipodi-0.dtd"
   xmlns:inkscape="http://www.inkscape.org/namespaces/inkscape"
   version="1.1"
   x="0px"
   y="0px"
   viewBox="0 0 48 60"
   enable-background="new 0 0 48 48"
   xml:space="preserve"
   id="svg2"
   inkscape:version="0.48.4 r9939"
   width="100%"
   height="100%"
   sodipodi:docname="solo.svg"><metadata
     id="metadata30"><rdf:RDF><cc:Work
         rdf:about=""><dc:format>image/svg+xml</dc:format><dc:type
           rdf:resource="http://purl.org/dc/dcmitype/StillImage" /></cc:Work></rdf:RDF></metadata><defs
     id="defs28" /><sodipodi:namedview
     pagecolor="#ffffff"
     bordercolor="#666666"
     borderopacity="1"
     objecttolerance="10"
     gridtolerance="10"
     guidetolerance="10"
     inkscape:pageopacity="0"
     inkscape:pageshadow="2"
     inkscape:window-width="1855"
     inkscape:window-height="1056"
     id="namedview26"
     showgrid="false"
     inkscape:zoom="3.9333333"
     inkscape:cx="24"
     inkscape:cy="30"
     inkscape:window-x="65"
     inkscape:window-y="24"
     inkscape:window-maximized="1"
     inkscape:current-layer="svg2" /><g
     id="g4"><g
       id="g6"><path
         fill="#000000"
         d="M44.9,47.5H32.7c-0.8,0-1.5-0.7-1.5-1.5s0.7-1.5,1.5-1.5h11.1c0.4,0,0.7-0.3,0.7-0.7V32.7    c0-0.8,0.7-1.5,1.5-1.5s1.5,0.7,1.5,1.5v12.2C47.5,46.3,46.3,47.5,44.9,47.5z"
         id="path8" /></g><g
       id="g10"><path
         fill="#000000"
         d="M46,16.8c-0.8,0-1.5-0.7-1.5-1.5V4.2c0-0.4-0.3-0.7-0.7-0.7H32.7c-0.8,0-1.5-0.7-1.5-1.5s0.7-1.5,1.5-1.5    h12.2c1.5,0,2.6,1.2,2.6,2.6v12.2C47.5,16.1,46.8,16.8,46,16.8z"
         id="path12" /></g><g
       id="g14"><path
         fill="#000000"
         d="M2,16.8c-0.8,0-1.5-0.7-1.5-1.5V3.1c0-1.5,1.2-2.6,2.6-2.6h12.2c0.8,0,1.5,0.7,1.5,1.5s-0.7,1.5-1.5,1.5    H4.2c-0.4,0-0.7,0.3-0.7,0.7v11.1C3.5,16.1,2.8,16.8,2,16.8z"
         id="path16" /></g><g
       id="g18"><path
         fill="#000000"
         d="M15.3,47.5H3.1c-1.5,0-2.6-1.2-2.6-2.6V32.7c0-0.8,0.7-1.5,1.5-1.5s1.5,0.7,1.5,1.5v11.1    c0,0.4,0.3,0.7,0.7,0.7h11.1c0.8,0,1.5,0.7,1.5,1.5S16.1,47.5,15.3,47.5z"
         id="path20" /></g></g></svg>