<?xml version="1.0" encoding="UTF-8" standalone="no"?>
<svg
   xmlns:dc="http://purl.org/dc/elements/1.1/"
   xmlns:cc="http://creativecommons.org/ns#"
   xmlns:rdf="http://www.w3.org/1999/02/22-rdf-syntax-ns#"
   xmlns:svg="http://www.w3.org/2000/svg"
   xmlns="http://www.w3.org/2000/svg"
   xmlns:sodipodi="http://sodipodi.sourceforge.net/DTD/sodipodi-0.dtd"
   xmlns:inkscape="http://www.inkscape.org/namespaces/inkscape"
   version="1.1"
   x="0px"
   y="0px"
   viewBox="0 0 100 125"
   enable-background="new 0 0 100 100"
   xml:space="preserve"
   id="svg2"
   inkscape:version="0.48.4 r9939"
   width="100%"
   height="100%"
   sodipodi:docname="template.svg"><metadata
     id="metadata14"><rdf:RDF><cc:Work
         rdf:about=""><dc:format>image/svg+xml</dc:format><dc:type
           rdf:resource="http://purl.org/dc/dcmitype/StillImage" /></cc:Work></rdf:RDF></metadata><defs
     id="defs12" /><sodipodi:namedview
     pagecolor="#ffffff"
     bordercolor="#666666"
     borderopacity="1"
     objecttolerance="10"
     gridtolerance="10"
     guidetolerance="10"
     inkscape:pageopacity="0"
     inkscape:pageshadow="2"
     inkscape:window-width="1855"
     inkscape:window-height="1056"
     id="namedview10"
     showgrid="false"
     inkscape:zoom="1.888"
     inkscape:cx="50"
     inkscape:cy="62.5"
     inkscape:window-x="65"
     inkscape:window-y="24"
     inkscape:window-maximized="1"
     inkscape:current-layer="svg2" /><path
     d="M94.886,6.791c-0.025-0.083-0.043-0.167-0.077-0.247c-0.036-0.087-0.086-0.167-0.131-0.249  c-0.033-0.06-0.06-0.123-0.098-0.181c-0.183-0.275-0.419-0.511-0.694-0.694c-0.057-0.038-0.118-0.063-0.177-0.096  c-0.083-0.046-0.164-0.096-0.253-0.133c-0.079-0.033-0.162-0.051-0.244-0.076c-0.074-0.022-0.145-0.051-0.222-0.066  C92.828,5.017,92.664,5,92.5,5H23.733c-0.16,0-0.315,0.018-0.467,0.047c-0.008,0.002-0.017,0.001-0.026,0.003  c-0.217,0.043-0.419,0.123-0.612,0.218c-0.045,0.022-0.087,0.046-0.13,0.071c-0.194,0.111-0.378,0.239-0.535,0.396L5.735,21.963  c-0.158,0.157-0.285,0.341-0.397,0.535c-0.025,0.043-0.048,0.085-0.07,0.129c-0.096,0.194-0.175,0.396-0.219,0.614  c-0.001,0.006-0.001,0.013-0.002,0.019C5.018,23.415,5,23.572,5,23.733V92.5c0,0.164,0.017,0.328,0.049,0.489  c0.015,0.075,0.043,0.144,0.064,0.217c0.025,0.084,0.044,0.169,0.078,0.25c0.036,0.086,0.085,0.165,0.129,0.246  c0.034,0.061,0.06,0.125,0.1,0.184c0.183,0.275,0.419,0.511,0.694,0.694c0.057,0.038,0.12,0.064,0.18,0.098  c0.082,0.046,0.162,0.095,0.25,0.132c0.08,0.033,0.164,0.052,0.247,0.077c0.073,0.022,0.143,0.05,0.219,0.065  C7.172,94.983,7.336,95,7.5,95h68.767c0.01,0,0.019-0.003,0.029-0.003c0.155-0.002,0.31-0.016,0.461-0.046  c0.095-0.019,0.183-0.053,0.274-0.082c0.064-0.021,0.13-0.034,0.193-0.06c0.104-0.043,0.199-0.1,0.295-0.156  c0.044-0.026,0.092-0.045,0.135-0.073c0.138-0.092,0.266-0.197,0.383-0.314l16.228-16.228c0.158-0.157,0.285-0.341,0.396-0.535  c0.025-0.043,0.048-0.085,0.07-0.13c0.096-0.193,0.175-0.396,0.219-0.614c0.001-0.006,0.001-0.013,0.002-0.019  C94.982,76.585,95,76.428,95,76.267V7.5c0-0.164-0.017-0.328-0.049-0.489C94.936,6.935,94.907,6.865,94.886,6.791z M21.233,13.536  v7.698h-7.698L21.233,13.536z M10,26.233h11.233v48.998L10,86.465V26.233z M73.767,90H13.535l11.233-11.233h48.998V90z   M73.767,73.767H26.233V26.233h47.533V73.767z M75.231,21.233H26.233V10h60.231L75.231,21.233z M78.767,86.464v-7.698h7.698  L78.767,86.464z M90,73.767H78.767V24.769L90,13.535V73.767z"
     id="path4" /></svg>